<svg xmlns="http://www.w3.org/2000/svg" xmlns:xlink="http://www.w3.org/1999/xlink" width="0" height="0" fill="#000">
    <symbol viewBox="0 0 40 40" id="down-arrow-rounded-edges">
        <path d="M7.8 1.4c.1-.2.2-.4.2-.6 0-.4-.4-.8-.9-.8-.2 0-.4.1-.6.3L4 2.9 1.5.3C1.3.1 1.1 0 .9 0 .4 0 0 .4 0 .8c0 .2.1.4.2.6l3.1 3.3c.3.3.9.4 1.2 0l3.3-3.3z" fill="#30A6F1"/>
    </symbol>
    <symbol viewBox="0 0 40 40" id="triangle-filled">
        <path d="M9.4 6l-7.7 3.9c-.4.2-.8.2-1.2 0-.3-.3-.5-.6-.5-1v-7.8c0-.4.2-.8.6-1 .4-.2.8-.2 1.2 0l7.6 3.9c.6.3.8.9.5 1.5-.1.2-.3.4-.5.5z"></path>
    </symbol>
    <symbol viewBox="0 0 40 40" id="triangle-rounded-edges">
        <path d="M16.5 23c-.6 0-1.2-.2-1.7-.5l-13-7.7c-.9-.6-1.5-1.5-1.7-2.6-.2-1 0-2.1.6-3 .3-.3.8-.8 1.1-1l13-7.7c1.1-.7 2.5-.6 3.6.1 1 .8 1.6 1.9 1.6 3.2v15.4c0 1.2-.6 2.4-1.6 3.2-.6.4-1.2.6-1.9.6zm-13.1-12.2l-.2.2c-.2.2-.2.5-.2.7s.2.5.4.6l12.9 7.7c.1.1.2.1.3 0 .2-.2.3-.4.3-.7v-15.5c0-.3-.1-.6-.4-.7.1-.1-.1-.1-.2-.1l-12.9 7.8z"></path>
    </symbol>
</svg>