<svg xmlns="http://www.w3.org/2000/svg">
    <symbol id="arrow-filled" viewBox="0 0 10 10">
        <path d="M9.4 6l-7.7 3.9c-.4.2-.8.2-1.2 0-.3-.3-.5-.6-.5-1v-7.8c0-.4.2-.8.6-1 .4-.2.8-.2 1.2 0l7.6 3.9c.6.3.8.9.5 1.5-.1.2-.3.4-.5.5z" />
    </symbol>
    <symbol id="arrow-without-bottom">
        <path d="M7.8 1.4c.1-.2.2-.4.2-.6 0-.4-.4-.8-.9-.8-.2 0-.4.1-.6.3L4 2.9 1.5.3C1.3.1 1.1 0 .9 0 .4 0 0 .4 0 .8c0 .2.1.4.2.6l3.1 3.3c.3.3.9.4 1.2 0l3.3-3.3z"/>
    </symbol>
    <symbol id="arrow-empty" viewBox="-4 -5 30 34">
        <path d="M16.5 23c-.6 0-1.2-.2-1.7-.5l-13-7.7c-.9-.6-1.5-1.5-1.7-2.6-.2-1 0-2.1.6-3 .3-.3.8-.8 1.1-1l13-7.7c1.1-.7 2.5-.6 3.6.1 1 .8 1.6 1.9 1.6 3.2v15.4c0 1.2-.6 2.4-1.6 3.2-.6.4-1.2.6-1.9.6zm-13.1-12.2l-.2.2c-.2.2-.2.5-.2.7s.2.5.4.6l12.9 7.7c.1.1.2.1.3 0 .2-.2.3-.4.3-.7v-15.5c0-.3-.1-.6-.4-.7.1-.1-.1-.1-.2-.1l-12.9 7.8z" />
    </symbol>
    <symbol id="facebook" viewBox="2 -3 20 30">
        <path d="M9 8h-3v4h3v12h5v-12h3.642l.358-4h-4v-1.667c0-.955.192-1.333 1.115-1.333h2.885v-5h-3.808c-3.596 0-5.192 1.583-5.192 4.615v3.385z"/>
    </symbol>
    <symbol id="inst" viewBox="2 -3 20 30">
        <path d="M12 2.163c3.204 0 3.584.012 4.85.07 3.252.148 4.771 1.691 4.919 4.919.058 1.265.069 1.645.069 4.849 0 3.205-.012 3.584-.069 4.849-.149 3.225-1.664 4.771-4.919 4.919-1.266.058-1.644.07-4.85.07-3.204 0-3.584-.012-4.849-.07-3.26-.149-4.771-1.699-4.919-4.92-.058-1.265-.07-1.644-.07-4.849 0-3.204.013-3.583.07-4.849.149-3.227 1.664-4.771 4.919-4.919 1.266-.057 1.645-.069 4.849-.069zm0-2.163c-3.259 0-3.667.014-4.947.072-4.358.2-6.78 2.618-6.98 6.98-.059 1.281-.073 1.689-.073 4.948 0 3.259.014 3.668.072 4.948.2 4.358 2.618 6.78 6.98 6.98 1.281.058 1.689.072 4.948.072 3.259 0 3.668-.014 4.948-.072 4.354-.2 6.782-2.618 6.979-6.98.059-1.28.073-1.689.073-4.948 0-3.259-.014-3.667-.072-4.947-.196-4.354-2.617-6.78-6.979-6.98-1.281-.059-1.69-.073-4.949-.073zm0 5.838c-3.403 0-6.162 2.759-6.162 6.162s2.759 6.163 6.162 6.163 6.162-2.759 6.162-6.163c0-3.403-2.759-6.162-6.162-6.162zm0 10.162c-2.209 0-4-1.79-4-4 0-2.209 1.791-4 4-4s4 1.791 4 4c0 2.21-1.791 4-4 4zm6.406-11.845c-.796 0-1.441.645-1.441 1.44s.645 1.44 1.441 1.44c.795 0 1.439-.645 1.439-1.44s-.644-1.44-1.439-1.44z"/>
    </symbol>
    <symbol id="vk" viewBox="2 -3 20 30">
        <path d="M13.162 18.994c.609 0 .858-.406.851-.915-.031-1.917.714-2.949 2.059-1.604 1.488 1.488 1.796 2.519 3.603 2.519h3.2c.808 0 1.126-.26 1.126-.668 0-.863-1.421-2.386-2.625-3.504-1.686-1.565-1.765-1.602-.313-3.486 1.801-2.339 4.157-5.336 2.073-5.336h-3.981c-.772 0-.828.435-1.103 1.083-.995 2.347-2.886 5.387-3.604 4.922-.751-.485-.407-2.406-.35-5.261.015-.754.011-1.271-1.141-1.539-.629-.145-1.241-.205-1.809-.205-2.273 0-3.841.953-2.95 1.119 1.571.293 1.42 3.692 1.054 5.16-.638 2.556-3.036-2.024-4.035-4.305-.241-.548-.315-.974-1.175-.974h-3.255c-.492 0-.787.16-.787.516 0 .602 2.96 6.72 5.786 9.77 2.756 2.975 5.48 2.708 7.376 2.708z"/>
    </symbol>
    <symbol id="cross" viewBox="0 0 18 18">
        <path d="M15.5 17.6l-6.5-6.5-6.5 6.5c-.6.6-1.5.6-2.1 0-.6-.6-.6-1.5 0-2.1l6.5-6.5-6.5-6.5c-.6-.6-.6-1.5 0-2.1.6-.6 1.5-.6 2.1 0l6.5 6.5 6.5-6.5c.6-.6 1.5-.6 2.1 0 .6.6.6 1.5 0 2.1l-6.5 6.5 6.5 6.5c.6.6.6 1.5 0 2.1-.3.3-.6.4-1 .4s-.8-.2-1.1-.4z"/>
    </symbol>
</svg>