<svg xmlns="http://www.w3.org/2000/svg" xmlns:xlink="http://www.w3.org/1999/xlink" version="1.1" style="enable-background:new 0 0 395 395;" xml:space="preserve" width="395" height="395"><rect id="backgroundrect" width="100%" height="100%" x="0" y="0" fill="none" stroke="none"/>
    <g class="currentLayer" style="">
        <title>Layer 1</title>
        <g id="svg_1" class="selected" stroke-opacity="1" stroke="#ff4a68" fill-opacity="1" fill="#ff4a68">
	        <path d="M313.002,0H82C36.785,0,0,36.784,0,81.998v230.993C0,358.211,36.785,395,82,395h231.002   C358.216,395,395,358.211,395,312.991V81.998C395,36.784,358.216,0,313.002,0z M380,312.991C380,349.94,349.944,380,313.002,380H82   c-36.944,0-67-30.06-67-67.009V81.998C15,45.056,45.056,15,82,15h231.002C349.944,15,380,45.056,380,81.998V312.991z" id="svg_2" stroke="#ff4a68" fill="#ff4a68"/>
            <path d="M205.613,65.609h-75.098c-12.09,0-21.891,9.801-21.891,21.891v220c0,12.09,9.801,21.891,21.891,21.891   c12.09,0,21.891-9.801,21.891-21.891v-73.015h53.207c44.532,0,80.762-36.229,80.762-80.761v-7.354   C286.375,101.839,250.145,65.609,205.613,65.609z M242.594,153.725c0,20.391-16.589,36.98-36.98,36.98h-53.207v-81.313h53.207   c20.392,0,36.98,16.589,36.98,36.979V153.725z" id="svg_3" stroke="#ff4a68" fill="#ff4a68"/>
        </g>
    </g>
</svg>