<svg xmlns="http://www.w3.org/2000/svg">
    <symbol id="otrada" xmlns="http://www.w3.org/2000/svg">
        <g data-name="Group 387" fill="#fefefe" fill-rule="evenodd">
            <path data-name="Path 1663" d="M56.243 42.498v6.056h-1.082v-6.056h-1.623V41.48h4.327v1.018z"/>
            <path data-name="Path 1664" d="M65.837 45.02a3.679 3.679 0 1 1-3.68-3.667 3.587 3.587 0 0 1 3.68 3.667zm-1.081 0a2.6 2.6 0 1 0-2.6 2.674 2.531 2.531 0 0 0 2.6-2.674z"/>
            <path data-name="Path 1665" d="M68.753 41.482a2.762 2.762 0 0 1 1.549.382 2.046 2.046 0 0 1 .879 1.716 1.983 1.983 0 0 1-.687 1.55 2.553 2.553 0 0 1-1.729.552h-.488v2.874h-1.082v-7.073zm-.477 3.2h.488c.932 0 1.378-.457 1.378-1.112 0-.394-.16-1.092-1.39-1.092h-.477z"/>
            <path data-name="Path 1666" d="M72.282 41.482h3.542V42.5h-2.46v6.056h-1.082z"/>
            <path data-name="Path 1667" d="M83.842 45.02a3.68 3.68 0 1 1-3.681-3.667 3.588 3.588 0 0 1 3.681 3.667zm-1.083 0a2.6 2.6 0 1 0-2.6 2.674 2.532 2.532 0 0 0 2.6-2.674z"/>
            <path data-name="Path 1668" d="M86.265 41.482a2.675 2.675 0 0 1 1.7.371 1.818 1.818 0 0 1 .816 1.6 1.577 1.577 0 0 1-.6 1.294 1.683 1.683 0 0 1 1.232 1.644 2.079 2.079 0 0 1-.711 1.666 2.654 2.654 0 0 1-1.889.5h-1.622v-7.073zm.011 3.043h.328a1 1 0 0 0 1.156-1.038c0-.882-.687-.987-1.112-.987h-.372v2.025zm0 3.012h.658c1.2 0 1.421-.6 1.421-1.05 0-.5-.256-1.071-1.4-1.071h-.68z"/>
            <path data-name="Path 1669" d="M90.773 41.482h1.082v2.853h.807a2.654 2.654 0 0 1 1.771.563 2.133 2.133 0 0 1-.212 3.276 2.758 2.758 0 0 1-1.549.382h-1.9v-7.073zm1.082 6.055h.764c.286 0 1.42 0 1.42-1.071 0-.508-.254-1.111-1.4-1.111h-.785zm5.07-6.055v7.073h-1.084v-7.073z"/>
            <path data-name="Path 1670" d="M103.388 43.793l-4.771 5.078V41.48h1.081v4.783l4.772-5.08v7.371h-1.083zm-2.746-4.444a.982.982 0 0 0 1.8 0l.849.381a1.958 1.958 0 0 1-3.5 0z"/>
            <path data-name="Path 1671" d="M113.836 41.482v7.073h-1.08v-6.056h-3.032v6.056h-1.082v-7.073z"/>
            <path data-name="Path 1672" d="M119.684 46.847h-3.023l-.771 1.709h-1.166l3.52-7.487 3.35 7.487h-1.163zm-.435-1.018l-1.049-2.4-1.093 2.4z"/>
            <path data-name="Path 1673" d="M124.041 41.482a2.752 2.752 0 0 1 1.547.382 2.043 2.043 0 0 1 .881 1.716 1.981 1.981 0 0 1-.688 1.55 2.551 2.551 0 0 1-1.729.552h-.487v2.874h-1.082v-7.073zm-.477 3.2h.487c.934 0 1.378-.457 1.378-1.112 0-.394-.16-1.092-1.389-1.092h-.477z"/>
            <path data-name="Path 1674" d="M128.653 44.3l2.736-2.819h1.421l-3.192 3.2 3.211 3.872h-1.441l-2.523-3.14-.211.213v2.927h-1.081V41.48h1.08v2.819z"/>
        </g>
        <g data-name="Group 388" fill="#fefefe" fill-rule="evenodd">
            <path data-name="Path 1675" d="M70.033 11.843a12.274 12.274 0 0 0-15.261 0 10.172 10.172 0 0 0 0 14.781 12.274 12.274 0 0 0 15.261 0 10.175 10.175 0 0 0 0-14.781zm-7.631 12.732a5.343 5.343 0 1 1 5.318-5.32 5.258 5.258 0 0 1-5.317 5.321z"/>
            <path data-name="Path 1676" d="M73.437 14.329h5.231v14.348h5.321V14.329h5.24V9.794H73.437z"/>
            <path data-name="Path 1677" d="M102.449 9.187a7.325 7.325 0 0 0-6.148 3.052v-2.44h-5.318v26.085h5.318v-9.646a7.136 7.136 0 0 0 6.018 3.056c5.58 0 9.416-4.318 9.416-10.076-.001-5.717-3.706-10.031-9.286-10.031zm-1.439 15.395a5.344 5.344 0 1 1 5.232-5.365 5.169 5.169 0 0 1-5.233 5.361z"/>
            <path data-name="Path 1678" d="M128.949 12.235a6.84 6.84 0 0 0-6.06-3.053c-5.58 0-9.375 4.449-9.375 10.029a9.79 9.79 0 0 0 9.637 10.074 6.589 6.589 0 0 0 5.8-3.053v2.442h5.318V9.791h-5.318zm-4.708 12.342a5.343 5.343 0 1 1 5.232-5.363 5.17 5.17 0 0 1-5.232 5.363z"/>
            <path data-name="Path 1679" d="M174.682 9.793v2.441a6.834 6.834 0 0 0-6.059-3.052c-5.582 0-9.375 4.447-9.375 10.028 0 5.539 3.838 10.074 9.637 10.074a6.768 6.768 0 0 0 5.8-3.053v2.441h5.318V9.791zm-4.707 14.784a5.344 5.344 0 1 1 5.23-5.365 5.17 5.17 0 0 1-5.23 5.365z"/>
            <path data-name="Path 1680" d="M155.513 5.594c-2.213-4.156-5.908-5.636-10.2-5.592a15.011 15.011 0 0 0-9.373 2.983l1.943 4.318a11.1 11.1 0 0 1 6.99-2.639c3.2-.026 6.861.989 7.641 7.948a7.359 7.359 0 0 0-5.049-3.282 9.563 9.563 0 0 0-7.938 2.39 10.108 10.108 0 0 0-3 7.536 9.788 9.788 0 0 0 2.99 7.369 10.866 10.866 0 0 0 7.631 2.659 9.665 9.665 0 0 0 10.348-9.294s.025-.742.019-1c.057-5.884.121-9.404-2.002-13.396zm-8.361 18.98a5.346 5.346 0 0 1 0-10.683 5.341 5.341 0 0 1 0 10.683z"/>
        </g>
        <g data-name="Group 390">
            <path data-name="Path 1681" d="M0 49.656h5.239l.349-4.512.1-4.768.233-14.26.831-2.816.5-1.23.813-3.7.444-2 1.179-6.848 1.2-3.008-.058-1.793.367-2.455 1.2-1.887H5.048l1.064 2.043-.31 3.574-1.876 5.525-1.509 2.5.291 7.326-1.8 8.758.814 11.193-.582 5.459z" fill="#fefefe" fill-rule="evenodd"/>
            <path data-name="Path 1682" d="M12.665 49.656l.6-12.477.909-5.178-.987-5.414.175-1.715-.5-3.652 1.335-5.555.251-4.627-.154-5.107-.853-5.547h4.8l-.136.959-.464 4.58-.388 3.6-.405 3.982-.192 5.271-.175 3.777.831 7.9-.174 3.588v1.512l-.077.895-.271 4.283.755 8.889z" fill="#fefefe" fill-rule="evenodd"/>
            <path data-name="Path 1683" d="M21.971 49.656h1.759l-.1-14.963.231-1.514-.154-1.037-.192-3.744-.1-3.039-.174-4.264.406-4.346-.195-10.088.118-1.146.173-2.3.542-2.832h-2.649l.116 1.289-.116 2.5-.136 2.455v1.2l.116 2.613.1 1.984.077 1.053.155 1.906.137 1.65.095 1.293.078.838-.445 7.486.272 3.289z" fill="#fefefe" fill-rule="evenodd"/>
            <path data-name="Path 1684" d="M30.654 49.656h-3L26.9 37.195l.426-6.406.027-4.1 1.674-6.836.851-5.336-.406-5.164-.348-4.908L28.002.384h3.828l1.259 8.467-.5 4.467-.927 9.385-1.588 5.836-.077 5.541-.193 2.268-.058 1.871z" fill="#fefefe" fill-rule="evenodd"/>
            <path data-name="Path 1685" d="M34.714 49.656h6.266l-.1-1.7-1.393-7.318 1.141-4.861.579-5.068.35-2.158.231-5.963.444-5.92.1-9.869L43.995.381h-6.884l1.779 5.664-.561 8.137-.427 5.525-.155 7.129-.928 8-1.47 6.137z" fill="#fefefe" fill-rule="evenodd"/>
            <path data-name="Path 1686" d="M38.89 6.049L43.996.385h-6.885z" fill="#fefefe" fill-rule="evenodd"/>
            <path data-name="Path 1687" d="M38.89 6.052l3.442.754-.083 10.025-2.14-5.289z" fill="#fefefe" fill-rule="evenodd"/>
            <path data-name="Path 1688" d="M42.3 16.719l-3.879-2.309-.441 5.377z" fill="#fefefe" fill-rule="evenodd"/>
            <path data-name="Path 1689" d="M41.771 22.474l-3.993 4.515 1.957.811 1.825.756z" fill="#fefefe" fill-rule="evenodd"/>
            <path data-name="Path 1690" d="M40.629 35.782l-3.81-.946-1.469 6.138 4.138-.331z" fill="#fefefe" fill-rule="evenodd"/>
            <path data-name="Path 1691" d="M39.491 40.645l1.393 7.318-6.169 1.693z" fill="#fefefe" fill-rule="evenodd"/>
            <path data-name="Path 1692" d="M37.728 27.198l3.276 3.427-4.184 4.21z" fill="#fefefe" fill-rule="evenodd"/>
            <path data-name="Path 1693" d="M29.15 4.608L31.876.35l-3.872.035z" fill="#fefefe" fill-rule="evenodd"/>
            <path data-name="Path 1694" d="M32.965 8.768L29.25 4.61l.24 4.871z" fill="#fefefe" fill-rule="evenodd"/>
            <path data-name="Path 1695" d="M32.592 13.195l-3.1-3.716.34 4.91z" fill="#fefefe" fill-rule="evenodd"/>
            <path data-name="Path 1696" d="M29.863 14.661l1.8 8.043-2.631-2.852z" fill="#fefefe" fill-rule="evenodd"/>
            <path data-name="Path 1697" d="M27.355 26.69s4.223-4.085 4.3-3.985-1.586 5.839-1.586 5.839z" fill="#fefefe" fill-rule="evenodd"/>
            <path data-name="Path 1698" d="M27.327 30.791c.153.081 2.668 3.29 2.668 3.29l-3.094 3.114z" fill="#fefefe" fill-rule="evenodd"/>
            <path data-name="Path 1699" d="M26.902 37.196c.1.021 2.9-.849 2.9-.849l-.058 1.873z" fill="#fefefe" fill-rule="evenodd"/>
            <path data-name="Path 1700" d="M24.291.384l-.541 2.832-1.992-1.543z" fill="#fefefe" fill-rule="evenodd"/>
            <path data-name="Path 1701" d="M23.576 5.518l-2.07 1.119V7.83l1.952-1.162z" fill="#fefefe" fill-rule="evenodd"/>
            <path data-name="Path 1702" d="M21.622 10.443l2.03 6.313-1.933-4.328z" fill="#fefefe" fill-rule="evenodd"/>
            <path data-name="Path 1703" d="M23.652 16.753l-1.565.285.174 2.129z" fill="#fefefe" fill-rule="evenodd"/>
            <path data-name="Path 1704" d="M22.265 19.165l.983 1.932-1.43 5.555z" fill="#fefefe" fill-rule="evenodd"/>
            <path data-name="Path 1705" d="M23.42 25.361l-1.606 1.291.284 3.133 1.419-1.385z" fill="#fefefe" fill-rule="evenodd"/>
            <path data-name="Path 1706" d="M23.682 32.05l-1.584-2.265 1.768 3.4z" fill="#fefefe" fill-rule="evenodd"/>
            <path data-name="Path 1707" d="M23.576 5.516l-1.891-2.01-.179 3.127z" fill="#fefefe" fill-rule="evenodd"/>
            <path data-name="Path 1708" d="M18.098 1.344l-4.66-.959.853 5.547z" fill="#fefefe" fill-rule="evenodd"/>
            <path data-name="Path 1709" d="M14.29 5.932l3.345-.006-.387 3.6-2.8 1.514z" fill="#fefefe" fill-rule="evenodd"/>
            <g data-name="Group 389">
                <path data-name="Path 1710" d="M14.193 15.666l2.649-2.156-2.4-2.469z" fill="#fefefe" fill-rule="evenodd"/>
            </g>
            <path data-name="Path 1711" d="M14.193 15.669l2.456 3.117-3.79 2.439z" fill="#fefefe" fill-rule="evenodd"/>
            <path data-name="Path 1712" d="M13.36 24.874l3.114-2.314.831 7.9-4.119-3.875z" fill="#fefefe" fill-rule="evenodd"/>
            <path data-name="Path 1713" d="M17.132 34.049l-2.958-2.046-.908 5.178 3.867-1.62z" fill="#fefefe" fill-rule="evenodd"/>
            <path data-name="Path 1714" d="M17.056 36.458l-3.791.723 3.52 3.561z" fill="#fefefe" fill-rule="evenodd"/>
            <path data-name="Path 1715" d="M12.665 49.655l4.118-8.916.755 8.889z" fill="#fefefe" fill-rule="evenodd"/>
            <path data-name="Path 1716" d="M11.201 2.273l-5.09.156-.309 3.574 5.026-1.275z" fill="#fefefe" fill-rule="evenodd"/>
            <path data-name="Path 1717" d="M10.886 6.522l-6.961 5 5.762-2z" fill="#fefefe" fill-rule="evenodd"/>
            <path data-name="Path 1718" d="M8.508 16.377L2.416 14.03l5.647 4.345z" fill="#fefefe" fill-rule="evenodd"/>
            <path data-name="Path 1719" d="M8.063 18.375l-5.355 2.979-1.8 8.762 6.343-8.041z" fill="#fefefe" fill-rule="evenodd"/>
            <path data-name="Path 1720" d="M.907 30.112l5.009-3.994-.231 14.26z" fill="#fefefe" fill-rule="evenodd"/>
            <path data-name="Path 1721" d="M5.588 45.146l-3.867-3.84-.582 5.459z" fill="#fefefe" fill-rule="evenodd"/>
        </g>
    </symbol>
</svg>